/* XPM */
static char * main_xpm[] = {
"32 32 6 1",
" 	c None",
".	c #0060bf",
"X	c black",
"o	c #9c999c",
"O	c white",
"+	c #dedede",
"                                ",
"                                ",
"                                ",
"                                ",
"...............................X",
"..............................oX",
"XO++++++++++++++++++++++++++++oX",
"XO++++++++++++++++++++++++++++oX",
"XO++XXXXXXXXXXXXXXXXXXXXXXXX++oX",
"XO++XoooooooooooXXooXXooXXoO++oX",
"XO++Xo++++++++++XX++X++++X+O++oX",
"XO++Xo+++++++++++X+++X++XX+O++oX",
"XO++XOOOOOOOOOOOOOOOOOOOOOOO++oX",
"XO++++++++++++++++++++++++++++oX",
"XO++OOo+OOo+OOo+OOo+OOo+OOo+++oX",
"XO++OXo+OXo+OXo+OXo+OXo+OXo+++oX",
"XO++ooo+ooo+ooo+ooo+ooo+ooo+++oX",
"XO++++++++++++++++++++++++++++oX",
"XO++OOo+OOo+OOo+OOo+OOo+OOo+++oX",
"XO++OXo+OXo+OXo+OXo+OXo+OXo+++oX",
"XO++ooo+ooo+ooo+ooo+ooo+ooo+++oX",
"XO++++++++++++++++++++++++++++oX",
"XO++OOo+OOo+OOo+OOo+OOo+OOo+++oX",
"XO++OXo+OXo+OXo+OXo+OXo+OXo+++oX",
"XO++ooo+ooo+ooo+ooo+ooo+ooo+++oX",
"XO++++++++++++++++++++++++++++oX",
"XooooooooooooooooooooooooooooooX",
"XXXXXXXXXXXXXXXXXXXXXXXXXXXXXXXX",
"                                ",
"                                ",
"                                ",
"                                "};
