<?xml version="1.0" encoding="UTF-8" standalone="no"?>
<!-- Created with Inkscape (http://www.inkscape.org/) -->
<svg
   xmlns:dc="http://purl.org/dc/elements/1.1/"
   xmlns:cc="http://creativecommons.org/ns#"
   xmlns:rdf="http://www.w3.org/1999/02/22-rdf-syntax-ns#"
   xmlns:svg="http://www.w3.org/2000/svg"
   xmlns="http://www.w3.org/2000/svg"
   xmlns:xlink="http://www.w3.org/1999/xlink"
   xmlns:sodipodi="http://sodipodi.sourceforge.net/DTD/sodipodi-0.dtd"
   xmlns:inkscape="http://www.inkscape.org/namespaces/inkscape"
   width="1280"
   height="800"
   id="svg1870"
   sodipodi:version="0.32"
   inkscape:version="0.46"
   sodipodi:docbase="/home/mubs/image_svg"
   sodipodi:docname="mouse_1280_800.svg"
   version="1.0"
   inkscape:export-filename="/home/mubs/xfce_mouse3.png"
   inkscape:export-xdpi="90"
   inkscape:export-ydpi="90"
   inkscape:output_extension="org.inkscape.output.svg.inkscape">
  <defs
     id="defs1872">
    <linearGradient
       id="linearGradient3242">
      <stop
         style="stop-color:#7ac28d;stop-opacity:1;"
         offset="0"
         id="stop3244" />
      <stop
         style="stop-color:#7ac28d;stop-opacity:0;"
         offset="1"
         id="stop3246" />
    </linearGradient>
    <inkscape:perspective
       sodipodi:type="inkscape:persp3d"
       inkscape:vp_x="0 : 512 : 1"
       inkscape:vp_y="0 : 1000 : 0"
       inkscape:vp_z="1280 : 512 : 1"
       inkscape:persp3d-origin="640 : 341.33333 : 1"
       id="perspective80" />
    <linearGradient
       id="linearGradient11031">
      <stop
         style="stop-color:white;stop-opacity:1;"
         offset="0"
         id="stop11033" />
      <stop
         id="stop11926"
         offset="0.56756759"
         style="stop-color:white;stop-opacity:0;" />
      <stop
         style="stop-color:white;stop-opacity:0;"
         offset="1"
         id="stop11035" />
    </linearGradient>
    <linearGradient
       id="linearGradient9242">
      <stop
         style="stop-color:white;stop-opacity:1;"
         offset="0"
         id="stop9244" />
      <stop
         style="stop-color:white;stop-opacity:0;"
         offset="1"
         id="stop9246" />
    </linearGradient>
    <linearGradient
       id="linearGradient6569">
      <stop
         style="stop-color:black;stop-opacity:1;"
         offset="0"
         id="stop6571" />
      <stop
         id="stop15566"
         offset="0.26756757"
         style="stop-color:black;stop-opacity:0.49803922;" />
      <stop
         style="stop-color:black;stop-opacity:0;"
         offset="1"
         id="stop6573" />
    </linearGradient>
    <linearGradient
       id="linearGradient63874">
      <stop
         style="stop-color:#000028;stop-opacity:1;"
         offset="0"
         id="stop63876" />
      <stop
         style="stop-color:#95a9be;stop-opacity:1;"
         offset="1"
         id="stop63878" />
    </linearGradient>
    <linearGradient
       inkscape:collect="always"
       id="linearGradient59439">
      <stop
         style="stop-color:white;stop-opacity:1;"
         offset="0"
         id="stop59441" />
      <stop
         style="stop-color:white;stop-opacity:0;"
         offset="1"
         id="stop59443" />
    </linearGradient>
    <linearGradient
       id="linearGradient48635">
      <stop
         id="stop48637"
         offset="0"
         style="stop-color:white;stop-opacity:0.55228758" />
      <stop
         id="stop48639"
         offset="1"
         style="stop-color:#000013;stop-opacity:0;" />
    </linearGradient>
    <linearGradient
       id="linearGradient35064">
      <stop
         style="stop-color:#90a8c3;stop-opacity:1;"
         offset="0"
         id="stop35066" />
      <stop
         style="stop-color:#c2c9d3;stop-opacity:1;"
         offset="1"
         id="stop35068" />
    </linearGradient>
    <linearGradient
       id="linearGradient23367">
      <stop
         style="stop-color:white;stop-opacity:1;"
         offset="0"
         id="stop23369" />
      <stop
         style="stop-color:#000013;stop-opacity:0;"
         offset="1"
         id="stop23371" />
    </linearGradient>
    <linearGradient
       id="linearGradient9148">
      <stop
         style="stop-color:#000012;stop-opacity:1;"
         offset="0"
         id="stop9150" />
      <stop
         style="stop-color:#00000e;stop-opacity:0;"
         offset="1"
         id="stop9152" />
    </linearGradient>
    <linearGradient
       id="linearGradient6481">
      <stop
         style="stop-color:white;stop-opacity:1;"
         offset="0"
         id="stop6483" />
      <stop
         style="stop-color:white;stop-opacity:0;"
         offset="1"
         id="stop6485" />
    </linearGradient>
    <linearGradient
       id="linearGradient16101">
      <stop
         style="stop-color:white;stop-opacity:1;"
         offset="0"
         id="stop16103" />
      <stop
         style="stop-color:#ff37b4;stop-opacity:0;"
         offset="1"
         id="stop16105" />
    </linearGradient>
    <linearGradient
       id="linearGradient9882">
      <stop
         id="stop9884"
         offset="0"
         style="stop-color:#df8338;stop-opacity:0.51372552;" />
      <stop
         id="stop9886"
         offset="1"
         style="stop-color:#030000;stop-opacity:0;" />
    </linearGradient>
    <linearGradient
       id="linearGradient8987">
      <stop
         id="stop8989"
         offset="0"
         style="stop-color:white;stop-opacity:0.84412467;" />
      <stop
         id="stop8991"
         offset="1"
         style="stop-color:#030000;stop-opacity:0;" />
    </linearGradient>
    <linearGradient
       id="linearGradient6312">
      <stop
         style="stop-color:#595e87;stop-opacity:0.42446044;"
         offset="0"
         id="stop6314" />
      <stop
         style="stop-color:#030000;stop-opacity:0;"
         offset="1"
         id="stop6316" />
    </linearGradient>
    <linearGradient
       id="linearGradient5417">
      <stop
         style="stop-color:white;stop-opacity:1;"
         offset="0"
         id="stop5419" />
      <stop
         style="stop-color:#030000;stop-opacity:0;"
         offset="1"
         id="stop5421" />
    </linearGradient>
    <radialGradient
       inkscape:collect="always"
       xlink:href="#linearGradient16101"
       id="radialGradient16994"
       cx="392.12625"
       cy="346.10626"
       fx="392.12625"
       fy="346.10626"
       r="147.37843"
       gradientTransform="matrix(1,0,0,0.528577,0,187.83)"
       gradientUnits="userSpaceOnUse" />
    <linearGradient
       inkscape:collect="always"
       xlink:href="#linearGradient23367"
       id="linearGradient55878"
       gradientUnits="userSpaceOnUse"
       gradientTransform="translate(106.46769,122.83359)"
       x1="360.94974"
       y1="297.93503"
       x2="366.19431"
       y2="428.54681" />
    <linearGradient
       inkscape:collect="always"
       xlink:href="#linearGradient9148"
       id="linearGradient55881"
       gradientUnits="userSpaceOnUse"
       gradientTransform="translate(-1.0188472,136.82157)"
       x1="400.28394"
       y1="476.25"
       x2="342.59381"
       y2="329.26718" />
    <linearGradient
       inkscape:collect="always"
       xlink:href="#linearGradient48635"
       id="linearGradient56773"
       gradientUnits="userSpaceOnUse"
       gradientTransform="translate(-65.235875,-59.149105)"
       x1="223.92091"
       y1="685.77936"
       x2="213.70309"
       y2="782.9209" />
    <linearGradient
       inkscape:collect="always"
       xlink:href="#linearGradient9148"
       id="linearGradient56776"
       gradientUnits="userSpaceOnUse"
       gradientTransform="translate(-43.885809,-67.247406)"
       x1="234.67299"
       y1="762.8775"
       x2="219.76186"
       y2="691.69452" />
    <radialGradient
       inkscape:collect="always"
       xlink:href="#linearGradient59439"
       id="radialGradient59445"
       cx="326.47375"
       cy="821.33612"
       fx="326.47375"
       fy="821.33612"
       r="267.20074"
       gradientTransform="matrix(1.81456,0,5.40344e-8,0.663874,-265.9325,220.1336)"
       gradientUnits="userSpaceOnUse" />
    <linearGradient
       inkscape:collect="always"
       xlink:href="#linearGradient63874"
       id="linearGradient63880"
       x1="1311.1395"
       y1="995.15491"
       x2="245.18312"
       y2="225.51601"
       gradientUnits="userSpaceOnUse" />
    <linearGradient
       inkscape:collect="always"
       xlink:href="#linearGradient6569"
       id="linearGradient6575"
       x1="916.03595"
       y1="1500.5397"
       x2="916.03595"
       y2="510.74258"
       gradientUnits="userSpaceOnUse"
       gradientTransform="matrix(1,0,0,0.116667,114,1007.65)" />
    <linearGradient
       inkscape:collect="always"
       xlink:href="#linearGradient9242"
       id="linearGradient9248"
       x1="97.461548"
       y1="865.80518"
       x2="621.96405"
       y2="566.48206"
       gradientUnits="userSpaceOnUse" />
    <linearGradient
       inkscape:collect="always"
       xlink:href="#linearGradient35064"
       id="linearGradient3248"
       x1="0"
       y1="1024"
       x2="0"
       y2="0"
       gradientUnits="userSpaceOnUse"
       gradientTransform="matrix(1,0,0,0.78125,0,-9.8913389e-7)" />
  </defs>
  <sodipodi:namedview
     id="base"
     pagecolor="#ffffff"
     bordercolor="#666666"
     borderopacity="1.0"
     gridtolerance="10000"
     guidetolerance="10"
     objecttolerance="10"
     inkscape:pageopacity="0.0"
     inkscape:pageshadow="2"
     inkscape:zoom="0.78652655"
     inkscape:cx="684.67548"
     inkscape:cy="707.71105"
     inkscape:document-units="px"
     inkscape:current-layer="layer1"
     inkscape:window-width="1280"
     inkscape:window-height="726"
     inkscape:window-x="0"
     inkscape:window-y="25"
     showguides="true"
     inkscape:guide-bbox="true"
     width="1280px"
     height="1024px"
     showgrid="false"
     inkscape:grid-points="true"
     inkscape:grid-bbox="true"
     inkscape:object-paths="false">
    <inkscape:grid
       id="GridFromPre046Settings"
       type="xygrid"
       originx="0px"
       originy="0px"
       spacingx="1px"
       spacingy="1px"
       color="#0000ff"
       empcolor="#0000ff"
       opacity="0.2"
       empopacity="0.4"
       empspacing="5"
       visible="true"
       enabled="true" />
    <sodipodi:guide
       orientation="1,0"
       position="0,846"
       id="guide3228" />
    <sodipodi:guide
       orientation="0,1"
       position="796,0"
       id="guide3231" />
    <sodipodi:guide
       orientation="0,1"
       position="264.454,800"
       id="guide3236" />
    <sodipodi:guide
       orientation="1,0"
       position="1280,1219.052"
       id="guide3238" />
  </sodipodi:namedview>
  <metadata
     id="metadata1875">
    <rdf:RDF>
      <cc:Work
         rdf:about="">
        <dc:format>image/svg+xml</dc:format>
        <dc:type
           rdf:resource="http://purl.org/dc/dcmitype/StillImage" />
      </cc:Work>
    </rdf:RDF>
  </metadata>
  <g
     inkscape:label="Layer 1"
     inkscape:groupmode="layer"
     id="layer1">
    <rect
       style="opacity:1;fill:url(#linearGradient3248);fill-opacity:1;stroke:none;stroke-width:1.79999995;stroke-linecap:round;stroke-linejoin:round;stroke-miterlimit:4;stroke-dasharray:none;stroke-dashoffset:0;stroke-opacity:1"
       id="rect3240"
       width="1280"
       height="800"
       x="0"
       y="-5.0549842e-15" />
    <path
       style="fill:#000000;fill-opacity:1;stroke:none;stroke-opacity:1"
       d="M 380.125,218.21875 C 342.09282,219.32432 333.37354,270.51352 341.78125,299.1875 C 350.26229,334.85692 349.6245,336.46363 342.3125,339.5 C 336.72011,341.82222 326.6264,323.99812 317.5625,303.09375 C 293.38072,247.32235 271.07845,236.48235 247.15625,246.28125 C 216.418,258.87215 215.46127,302.11427 226.875,341.03125 C 236.68907,374.49389 229.15121,403.0095 193.96875,424.71875 C 163.75522,443.36188 86.833653,416.65525 33.875,408.625 C 21.664049,406.77343 10.53479,404.87582 0,403.0625 L 0,800 L 419.0625,800 C 415.49371,794.7307 411.43761,789.1203 406.84375,783.125 C 380.9481,749.32927 386.1224,745.47198 436.5,760.875 C 486.11731,776.0456 502.34128,778.6508 506.5,772.34375 C 512.82116,762.75725 505.33451,747.17052 479.1875,715.25 C 398.54695,621.71871 520.83734,633.74705 641.6875,528.28125 C 737.02656,445.07898 525.84035,371.86218 432.46875,342.5625 C 414.61069,298.65677 445.19445,221.61678 383.90625,218.28125 C 383.26256,218.24622 382.59707,218.22685 381.96875,218.21875 C 381.35025,218.21078 380.72869,218.2012 380.125,218.21875 z M 683.875,307.25 C 682.59243,307.34231 680.34616,309.08539 676.8125,313.03125 C 668.31565,322.51914 644.02548,372.66468 641.125,382.71875 C 637.94351,393.74673 652.41481,375.38792 673.71875,338.9375 C 680.25204,327.75928 687.84717,308.56336 684.375,307.28125 C 684.23033,307.22783 684.05822,307.23681 683.875,307.25 z M 620.40625,329.28125 C 616.21331,329.18219 609.80983,345.18553 610.34375,360.34375 C 611.07219,381.02842 631.01481,335.34748 621.125,329.40625 C 620.86738,329.25148 620.68579,329.28784 620.40625,329.28125 z M 454.84375,397.53125 C 455.16602,397.53017 455.47482,397.54008 455.8125,397.5625 C 471.98228,398.63553 479.33207,408.43768 479.625,417.15625 C 479.9274,426.15492 471.31209,435.21714 456.09375,437.15625 C 444.8445,438.58951 435.25,429.46511 435.25,418.125 C 435.24996,407.49362 443.89812,398.10628 453.875,397.5625 C 454.20757,397.54438 454.52148,397.53233 454.84375,397.53125 z M 511.3125,517.3125 C 515.03424,517.26473 516.2718,519.31687 516.15625,523.25 C 516.05664,526.63997 505.92991,533.34827 493.625,538.21875 C 451.4176,554.92494 445.66356,543.67454 487.1875,525.625 C 498.99391,520.49298 506.23039,517.7223 510.5625,517.375 C 510.83326,517.3533 511.06438,517.31568 511.3125,517.3125 z M 527.03125,545.90625 C 527.23981,545.8929 527.43817,545.89825 527.625,545.90625 C 534.10189,546.18355 528.60504,559.33489 523.5625,565.78125 C 508.67348,580.7197 488.35484,593.37955 484.9375,587.46875 C 481.95663,582.31304 506.86071,555.57767 521.03125,548 C 523.57831,546.63801 525.57131,545.99973 527.03125,545.90625 z"
       id="path16093" />
    <rect
       style="opacity:1;fill:#ffff00;fill-opacity:0;stroke:none;stroke-width:1.79999995;stroke-linecap:round;stroke-linejoin:round;stroke-miterlimit:4;stroke-dasharray:none;stroke-dashoffset:0;stroke-opacity:1"
       id="rect2442"
       width="670"
       height="818"
       x="-676"
       y="298" />
    <path
       style="fill:#f2f7fd;fill-opacity:1;stroke:none;stroke-opacity:1"
       d="M 380.875,224.1875 C 362.63079,223.77499 349.98791,241.28505 346.98688,257.74601 C 340.76547,280.81146 349.63944,304.08091 353.78125,326.6875 C 355.37947,334.80085 351.21774,345.56819 341.6875,345.46875 C 332.86184,345.9336 329.09738,336.46457 324.625,330.59375 C 311.47621,308.81755 305.0021,283.2108 288.0625,263.6875 C 279.8287,253.12077 265.77102,245.74886 252.375,250.625 C 237.69781,255.2361 228.4686,269.93566 227.125,284.84375 C 222.99131,309.80398 232.19137,334.17216 236.59375,358.40625 C 239.31934,382.71541 228.11035,407.47022 208.69568,421.88432 C 195.4774,433.3342 177.58,438.88157 160.09421,436.96971 C 113.74428,435.38056 69.742321,418.97103 23.958653,413.08782 C 17.974453,412.0983 5.986329,410.06115 0,409.08464 C 0,537.03256 0,672.05208 0,800 C 133.88542,800 278.41445,800 412.29987,800 C 403.88074,788.1541 387.19379,770.87854 385.53125,755.75 C 386.65926,746.80394 397.81798,744.4023 405.1468,746.94965 C 435.70937,751.66609 464.06604,765.77489 494.78125,769.40625 C 498.36883,769.7322 503.41319,769.33469 502.625,764.53125 C 501.08473,753.88184 494.00532,745.04491 488.1875,736.375 C 472.82625,715.55098 451.38515,696.36336 447.34488,669.66055 C 445.82025,653.50188 455.75319,638.61974 468.84375,630.09375 C 495.76573,609.92294 527.7537,597.9737 556.40625,580.5 C 590.30197,561.00787 623.73147,539.35434 650.46875,510.59375 C 660.63144,497.70741 663.4766,478.59439 653.71875,464.6875 C 638.37923,438.79686 610.46702,423.68223 584.96328,409.11965 C 535.99293,382.70177 482.49185,365.41664 429.84375,347.65625 C 423.38039,342.67171 424.149,333.40027 421.875,326.28125 C 416.81266,297.52612 423.88599,266.44537 411.96875,239.3125 C 405.79495,228.4817 392.84873,223.69258 380.875,224.1875 z M 455.25,391.46875 C 470.52894,391.06832 487.48938,403.60346 485.4375,420.0625 C 482.58348,437.25045 461.95498,446.40174 446.15625,442.15625 C 429.61937,436.96111 423.41286,413.10791 435.78125,400.71875 C 440.56842,395.04613 447.75094,391.3755 455.25,391.46875 z M 511.78125,511.25 C 522.89956,510.6536 525.89217,528.17213 516.3125,532.5 C 500.59306,543.89404 481.45174,550.47266 462.25,552.53125 C 456.16277,552.68154 450.0924,545.73025 454.21875,540.09375 C 462.14376,528.10956 477.09222,524.73707 489.0625,518.21875 C 496.31297,514.94996 503.83136,512.17426 511.78125,511.25 z M 527.03125,539.875 C 536.03343,539.28298 538.98512,551.18383 534.875,557.59375 C 528.10511,574.95041 510.96965,585.08157 495.34375,593.5625 C 489.38114,596.43476 479.43631,594.9182 478.90625,586.9375 C 479.02665,576.57432 488.55389,569.946 494.34375,562.375 C 503.40546,552.86277 513.80117,542.70812 527.03125,539.875 z"
       id="path3250"
       sodipodi:nodetypes="ccccccccccccccccccccccccccccccccccccccccccccccc" />
  </g>
</svg>
