/* XPM */
static char * doc1_xpm[] = {
"16 16 9 1",
" 	c None",
".	c #000000",
"+	c #EDEDED",
"@	c #B2B2B2",
"#	c #FFFFFF",
"$	c #BCBCBC",
"%	c #C1C1C1",
"&	c #C9C9C9",
"*	c #CECECE",
"     ....       ",
"   ...+++..     ",
"  ..@@.##+.     ",
"..@@@@.#..@.    ",
".$@@@@@.@@@..   ",
"..$@$$$@@@@@.   ",
" .$$$%%%$$$@..  ",
"  .%%&&&%%$%$.  ",
"  .&&&&&&&%%%%. ",
"   .*&&*&&&%%%. ",
"   .******&%..  ",
"    .*****..    ",
"    ..**..      ",
"     .*..       ",
"     ..         ",
"                "};
