<?xml version="1.0" encoding="UTF-8" standalone="no"?>
<!-- Created with Inkscape (http://www.inkscape.org/) -->
<svg
   xmlns:dc="http://purl.org/dc/elements/1.1/"
   xmlns:cc="http://creativecommons.org/ns#"
   xmlns:rdf="http://www.w3.org/1999/02/22-rdf-syntax-ns#"
   xmlns:svg="http://www.w3.org/2000/svg"
   xmlns="http://www.w3.org/2000/svg"
   xmlns:xlink="http://www.w3.org/1999/xlink"
   xmlns:sodipodi="http://sodipodi.sourceforge.net/DTD/sodipodi-0.dtd"
   xmlns:inkscape="http://www.inkscape.org/namespaces/inkscape"
   width="1280"
   height="1024"
   id="svg1870"
   sodipodi:version="0.32"
   inkscape:version="0.46"
   sodipodi:docbase="/home/mubs/image_svg"
   sodipodi:docname="mouse.svg"
   version="1.0"
   inkscape:export-filename="/home/mubs/xfce_mouse3.png"
   inkscape:export-xdpi="90"
   inkscape:export-ydpi="90"
   inkscape:output_extension="org.inkscape.output.svg.inkscape">
  <defs
     id="defs1872">
    <linearGradient
       id="linearGradient3242">
      <stop
         style="stop-color:#7ac28d;stop-opacity:1;"
         offset="0"
         id="stop3244" />
      <stop
         style="stop-color:#7ac28d;stop-opacity:0;"
         offset="1"
         id="stop3246" />
    </linearGradient>
    <inkscape:perspective
       sodipodi:type="inkscape:persp3d"
       inkscape:vp_x="0 : 512 : 1"
       inkscape:vp_y="0 : 1000 : 0"
       inkscape:vp_z="1280 : 512 : 1"
       inkscape:persp3d-origin="640 : 341.33333 : 1"
       id="perspective80" />
    <linearGradient
       id="linearGradient11031">
      <stop
         style="stop-color:white;stop-opacity:1;"
         offset="0"
         id="stop11033" />
      <stop
         id="stop11926"
         offset="0.56756759"
         style="stop-color:white;stop-opacity:0;" />
      <stop
         style="stop-color:white;stop-opacity:0;"
         offset="1"
         id="stop11035" />
    </linearGradient>
    <linearGradient
       id="linearGradient9242">
      <stop
         style="stop-color:white;stop-opacity:1;"
         offset="0"
         id="stop9244" />
      <stop
         style="stop-color:white;stop-opacity:0;"
         offset="1"
         id="stop9246" />
    </linearGradient>
    <linearGradient
       id="linearGradient6569">
      <stop
         style="stop-color:black;stop-opacity:1;"
         offset="0"
         id="stop6571" />
      <stop
         id="stop15566"
         offset="0.26756757"
         style="stop-color:black;stop-opacity:0.49803922;" />
      <stop
         style="stop-color:black;stop-opacity:0;"
         offset="1"
         id="stop6573" />
    </linearGradient>
    <linearGradient
       id="linearGradient63874">
      <stop
         style="stop-color:#000028;stop-opacity:1;"
         offset="0"
         id="stop63876" />
      <stop
         style="stop-color:#95a9be;stop-opacity:1;"
         offset="1"
         id="stop63878" />
    </linearGradient>
    <linearGradient
       inkscape:collect="always"
       id="linearGradient59439">
      <stop
         style="stop-color:white;stop-opacity:1;"
         offset="0"
         id="stop59441" />
      <stop
         style="stop-color:white;stop-opacity:0;"
         offset="1"
         id="stop59443" />
    </linearGradient>
    <linearGradient
       id="linearGradient48635">
      <stop
         id="stop48637"
         offset="0"
         style="stop-color:white;stop-opacity:0.55228758" />
      <stop
         id="stop48639"
         offset="1"
         style="stop-color:#000013;stop-opacity:0;" />
    </linearGradient>
    <linearGradient
       id="linearGradient35064">
      <stop
         style="stop-color:#90a8c3;stop-opacity:1;"
         offset="0"
         id="stop35066" />
      <stop
         style="stop-color:#c2c9d3;stop-opacity:1;"
         offset="1"
         id="stop35068" />
    </linearGradient>
    <linearGradient
       id="linearGradient23367">
      <stop
         style="stop-color:white;stop-opacity:1;"
         offset="0"
         id="stop23369" />
      <stop
         style="stop-color:#000013;stop-opacity:0;"
         offset="1"
         id="stop23371" />
    </linearGradient>
    <linearGradient
       id="linearGradient9148">
      <stop
         style="stop-color:#000012;stop-opacity:1;"
         offset="0"
         id="stop9150" />
      <stop
         style="stop-color:#00000e;stop-opacity:0;"
         offset="1"
         id="stop9152" />
    </linearGradient>
    <linearGradient
       id="linearGradient6481">
      <stop
         style="stop-color:white;stop-opacity:1;"
         offset="0"
         id="stop6483" />
      <stop
         style="stop-color:white;stop-opacity:0;"
         offset="1"
         id="stop6485" />
    </linearGradient>
    <linearGradient
       id="linearGradient16101">
      <stop
         style="stop-color:white;stop-opacity:1;"
         offset="0"
         id="stop16103" />
      <stop
         style="stop-color:#ff37b4;stop-opacity:0;"
         offset="1"
         id="stop16105" />
    </linearGradient>
    <linearGradient
       id="linearGradient9882">
      <stop
         id="stop9884"
         offset="0"
         style="stop-color:#df8338;stop-opacity:0.51372552;" />
      <stop
         id="stop9886"
         offset="1"
         style="stop-color:#030000;stop-opacity:0;" />
    </linearGradient>
    <linearGradient
       id="linearGradient8987">
      <stop
         id="stop8989"
         offset="0"
         style="stop-color:white;stop-opacity:0.84412467;" />
      <stop
         id="stop8991"
         offset="1"
         style="stop-color:#030000;stop-opacity:0;" />
    </linearGradient>
    <linearGradient
       id="linearGradient6312">
      <stop
         style="stop-color:#595e87;stop-opacity:0.42446044;"
         offset="0"
         id="stop6314" />
      <stop
         style="stop-color:#030000;stop-opacity:0;"
         offset="1"
         id="stop6316" />
    </linearGradient>
    <linearGradient
       id="linearGradient5417">
      <stop
         style="stop-color:white;stop-opacity:1;"
         offset="0"
         id="stop5419" />
      <stop
         style="stop-color:#030000;stop-opacity:0;"
         offset="1"
         id="stop5421" />
    </linearGradient>
    <radialGradient
       inkscape:collect="always"
       xlink:href="#linearGradient16101"
       id="radialGradient16994"
       cx="392.12625"
       cy="346.10626"
       fx="392.12625"
       fy="346.10626"
       r="147.37843"
       gradientTransform="matrix(1,0,0,0.528577,0,187.83)"
       gradientUnits="userSpaceOnUse" />
    <linearGradient
       inkscape:collect="always"
       xlink:href="#linearGradient23367"
       id="linearGradient55878"
       gradientUnits="userSpaceOnUse"
       gradientTransform="translate(106.46769,122.83359)"
       x1="360.94974"
       y1="297.93503"
       x2="366.19431"
       y2="428.54681" />
    <linearGradient
       inkscape:collect="always"
       xlink:href="#linearGradient9148"
       id="linearGradient55881"
       gradientUnits="userSpaceOnUse"
       gradientTransform="translate(-1.0188472,136.82157)"
       x1="400.28394"
       y1="476.25"
       x2="342.59381"
       y2="329.26718" />
    <linearGradient
       inkscape:collect="always"
       xlink:href="#linearGradient48635"
       id="linearGradient56773"
       gradientUnits="userSpaceOnUse"
       gradientTransform="translate(-65.235875,-59.149105)"
       x1="223.92091"
       y1="685.77936"
       x2="213.70309"
       y2="782.9209" />
    <linearGradient
       inkscape:collect="always"
       xlink:href="#linearGradient9148"
       id="linearGradient56776"
       gradientUnits="userSpaceOnUse"
       gradientTransform="translate(-43.885809,-67.247406)"
       x1="234.67299"
       y1="762.8775"
       x2="219.76186"
       y2="691.69452" />
    <radialGradient
       inkscape:collect="always"
       xlink:href="#linearGradient59439"
       id="radialGradient59445"
       cx="326.47375"
       cy="821.33612"
       fx="326.47375"
       fy="821.33612"
       r="267.20073"
       gradientTransform="matrix(1.81456,0,5.40344e-8,0.663874,-265.9325,220.1336)"
       gradientUnits="userSpaceOnUse" />
    <linearGradient
       inkscape:collect="always"
       xlink:href="#linearGradient63874"
       id="linearGradient63880"
       x1="1311.1395"
       y1="995.15491"
       x2="245.18312"
       y2="225.51601"
       gradientUnits="userSpaceOnUse" />
    <linearGradient
       inkscape:collect="always"
       xlink:href="#linearGradient6569"
       id="linearGradient6575"
       x1="916.03595"
       y1="1500.5397"
       x2="916.03595"
       y2="510.74258"
       gradientUnits="userSpaceOnUse"
       gradientTransform="matrix(1,0,0,0.116667,114,1007.65)" />
    <linearGradient
       inkscape:collect="always"
       xlink:href="#linearGradient9242"
       id="linearGradient9248"
       x1="97.461548"
       y1="865.80518"
       x2="621.96405"
       y2="566.48206"
       gradientUnits="userSpaceOnUse" />
    <linearGradient
       inkscape:collect="always"
       xlink:href="#linearGradient35064"
       id="linearGradient3248"
       x1="0"
       y1="1024"
       x2="0"
       y2="0"
       gradientUnits="userSpaceOnUse" />
  </defs>
  <sodipodi:namedview
     id="base"
     pagecolor="#ffffff"
     bordercolor="#666666"
     borderopacity="1.0"
     gridtolerance="10000"
     guidetolerance="10"
     objecttolerance="10"
     inkscape:pageopacity="0.0"
     inkscape:pageshadow="2"
     inkscape:zoom="0.49489311"
     inkscape:cx="726.11128"
     inkscape:cy="554.25074"
     inkscape:document-units="px"
     inkscape:current-layer="layer1"
     inkscape:window-width="1280"
     inkscape:window-height="726"
     inkscape:window-x="0"
     inkscape:window-y="25"
     showguides="true"
     inkscape:guide-bbox="true"
     width="1280px"
     height="1024px"
     showgrid="false"
     inkscape:grid-points="true"
     inkscape:grid-bbox="true"
     inkscape:object-paths="false">
    <inkscape:grid
       id="GridFromPre046Settings"
       type="xygrid"
       originx="0px"
       originy="0px"
       spacingx="1px"
       spacingy="1px"
       color="#0000ff"
       empcolor="#0000ff"
       opacity="0.2"
       empopacity="0.4"
       empspacing="5" />
    <sodipodi:guide
       orientation="1,0"
       position="0,846"
       id="guide3228" />
    <sodipodi:guide
       orientation="0,1"
       position="796,0"
       id="guide3231" />
    <sodipodi:guide
       orientation="0,1"
       position="-579.828,1024"
       id="guide3236" />
    <sodipodi:guide
       orientation="1,0"
       position="1280,1219.052"
       id="guide3238" />
  </sodipodi:namedview>
  <metadata
     id="metadata1875">
    <rdf:RDF>
      <cc:Work
         rdf:about="">
        <dc:format>image/svg+xml</dc:format>
        <dc:type
           rdf:resource="http://purl.org/dc/dcmitype/StillImage" />
      </cc:Work>
    </rdf:RDF>
  </metadata>
  <g
     inkscape:label="Layer 1"
     inkscape:groupmode="layer"
     id="layer1">
    <rect
       style="opacity:1;fill:url(#linearGradient3248);fill-opacity:1.0;stroke:none;stroke-width:1.79999994999999990;stroke-linecap:round;stroke-linejoin:round;stroke-miterlimit:4;stroke-dasharray:none;stroke-dashoffset:0;stroke-opacity:1"
       id="rect3240"
       width="1280"
       height="1024"
       x="0"
       y="0" />
    <path
       style="fill:#000000;fill-opacity:1;stroke:none;stroke-opacity:1"
       d="M 380.125 442.21875 C 342.09282 443.32432 333.37354 494.51352 341.78125 523.1875 C 350.26229 558.85692 349.6245 560.46363 342.3125 563.5 C 336.72011 565.82222 326.6264 547.99812 317.5625 527.09375 C 293.38072 471.32235 271.07845 460.48235 247.15625 470.28125 C 216.418 482.87215 215.46127 526.11427 226.875 565.03125 C 236.68907 598.49389 229.15121 627.0095 193.96875 648.71875 C 163.75522 667.36188 86.833653 640.65525 33.875 632.625 C 21.664049 630.77343 10.53479 628.87582 0 627.0625 L 0 1024 L 419.0625 1024 C 415.49371 1018.7307 411.43761 1013.1203 406.84375 1007.125 C 380.9481 973.32927 386.1224 969.47198 436.5 984.875 C 486.11731 1000.0456 502.34128 1002.6508 506.5 996.34375 C 512.82116 986.75725 505.33451 971.17052 479.1875 939.25 C 398.54695 845.71871 520.83734 857.74705 641.6875 752.28125 C 737.02656 669.07898 525.84035 595.86218 432.46875 566.5625 C 414.61069 522.65677 445.19445 445.61678 383.90625 442.28125 C 383.26256 442.24622 382.59707 442.22685 381.96875 442.21875 C 381.35025 442.21078 380.72869 442.2012 380.125 442.21875 z M 683.875 531.25 C 682.59243 531.34231 680.34616 533.08539 676.8125 537.03125 C 668.31565 546.51914 644.02548 596.66468 641.125 606.71875 C 637.94351 617.74673 652.41481 599.38792 673.71875 562.9375 C 680.25204 551.75928 687.84717 532.56336 684.375 531.28125 C 684.23033 531.22783 684.05822 531.23681 683.875 531.25 z M 620.40625 553.28125 C 616.21331 553.18219 609.80983 569.18553 610.34375 584.34375 C 611.07219 605.02842 631.01481 559.34748 621.125 553.40625 C 620.86738 553.25148 620.68579 553.28784 620.40625 553.28125 z M 454.84375 621.53125 C 455.16602 621.53017 455.47482 621.54008 455.8125 621.5625 C 471.98228 622.63553 479.33207 632.43768 479.625 641.15625 C 479.9274 650.15492 471.31209 659.21714 456.09375 661.15625 C 444.8445 662.58951 435.25 653.46511 435.25 642.125 C 435.24996 631.49362 443.89812 622.10628 453.875 621.5625 C 454.20757 621.54438 454.52148 621.53233 454.84375 621.53125 z M 511.3125 741.3125 C 515.03424 741.26473 516.2718 743.31687 516.15625 747.25 C 516.05664 750.63997 505.92991 757.34827 493.625 762.21875 C 451.4176 778.92494 445.66356 767.67454 487.1875 749.625 C 498.99391 744.49298 506.23039 741.7223 510.5625 741.375 C 510.83326 741.3533 511.06438 741.31568 511.3125 741.3125 z M 527.03125 769.90625 C 527.23981 769.8929 527.43817 769.89825 527.625 769.90625 C 534.10189 770.18355 528.60504 783.33489 523.5625 789.78125 C 508.67348 804.7197 488.35484 817.37955 484.9375 811.46875 C 481.95663 806.31304 506.86071 779.57767 521.03125 772 C 523.57831 770.63801 525.57131 769.99973 527.03125 769.90625 z "
       id="path16093" />
    <rect
       style="opacity:1;fill:#ffff00;fill-opacity:0;stroke:none;stroke-width:1.79999994999999990;stroke-linecap:round;stroke-linejoin:round;stroke-miterlimit:4;stroke-dasharray:none;stroke-dashoffset:0;stroke-opacity:1"
       id="rect2442"
       width="670"
       height="818"
       x="-676"
       y="298" />
    <path
       style="fill:#f2f7fd;fill-opacity:1;stroke:none;stroke-opacity:1"
       d="M 380.875,448.1875 C 362.63079,447.77499 349.98791,465.28505 346.98688,481.74601 C 340.76547,504.81146 349.63944,528.08091 353.78125,550.6875 C 355.37947,558.80085 351.21774,569.56819 341.6875,569.46875 C 332.86184,569.9336 329.09738,560.46457 324.625,554.59375 C 311.47621,532.81755 305.0021,507.2108 288.0625,487.6875 C 279.8287,477.12077 265.77102,469.74886 252.375,474.625 C 237.69781,479.2361 228.4686,493.93566 227.125,508.84375 C 222.99131,533.80398 232.19137,558.17216 236.59375,582.40625 C 239.31934,606.71541 228.11035,631.47022 208.69568,645.88432 C 195.4774,657.3342 177.58,662.88157 160.09421,660.96971 C 113.74428,659.38056 69.742321,642.97103 23.958653,637.08782 C 17.974453,636.0983 5.986329,634.06115 0,633.08464 C 0,761.03256 0,896.05208 0,1024 C 133.88542,1024 278.41445,1024 412.29987,1024 C 403.88074,1012.1541 387.19379,994.87854 385.53125,979.75 C 386.65926,970.80394 397.81798,968.4023 405.1468,970.94965 C 435.70937,975.66609 464.06604,989.77489 494.78125,993.40625 C 498.36883,993.7322 503.41319,993.33469 502.625,988.53125 C 501.08473,977.88184 494.00532,969.04491 488.1875,960.375 C 472.82625,939.55098 451.38515,920.36336 447.34488,893.66055 C 445.82025,877.50188 455.75319,862.61974 468.84375,854.09375 C 495.76573,833.92294 527.7537,821.9737 556.40625,804.5 C 590.30197,785.00787 623.73147,763.35434 650.46875,734.59375 C 660.63144,721.70741 663.4766,702.59439 653.71875,688.6875 C 638.37923,662.79686 610.46702,647.68223 584.96328,633.11965 C 535.99293,606.70177 482.49185,589.41664 429.84375,571.65625 C 423.38039,566.67171 424.149,557.40027 421.875,550.28125 C 416.81266,521.52612 423.88599,490.44537 411.96875,463.3125 C 405.79495,452.4817 392.84873,447.69258 380.875,448.1875 z M 455.25,615.46875 C 470.52894,615.06832 487.48938,627.60346 485.4375,644.0625 C 482.58348,661.25045 461.95498,670.40174 446.15625,666.15625 C 429.61937,660.96111 423.41286,637.10791 435.78125,624.71875 C 440.56842,619.04613 447.75094,615.3755 455.25,615.46875 z M 511.78125,735.25 C 522.89956,734.6536 525.89217,752.17213 516.3125,756.5 C 500.59306,767.89404 481.45174,774.47266 462.25,776.53125 C 456.16277,776.68154 450.0924,769.73025 454.21875,764.09375 C 462.14376,752.10956 477.09222,748.73707 489.0625,742.21875 C 496.31297,738.94996 503.83136,736.17426 511.78125,735.25 z M 527.03125,763.875 C 536.03343,763.28298 538.98512,775.18383 534.875,781.59375 C 528.10511,798.95041 510.96965,809.08157 495.34375,817.5625 C 489.38114,820.43476 479.43631,818.9182 478.90625,810.9375 C 479.02665,800.57432 488.55389,793.946 494.34375,786.375 C 503.40546,776.86277 513.80117,766.70812 527.03125,763.875 z"
       id="path3250"
       sodipodi:nodetypes="ccccccccccccccccccccccccccccccccccccccccccccccc" />
  </g>
</svg>
