/* XPM */
static char *webericon[]={
"32 32 5 1",
"c c #000000",
"a c #330099",
"# c #808080",
". c #c0c0c0",
"b c #ff0000",
"...............................#",
"..............................##",
"..aaaaaaaaaaaaaaaaaaaaaaaaabcc##",
"..aaaaaaaaaaaaaaaaaaaaaaaabbcc##",
"..aaaaaaaaaaaaaaaaaaaaaaabbbcc##",
"..aaaaaaaaaaaaaaaaaaaaaabbbbcc##",
"..aaaaaaaaaaaaaaaaaaaaabbbbbcc##",
"..aaaaaaaaaaaaaaaaaaaaaaaaaaaa##",
"..aaaaaaaaaaaaaaaaaaaabbbbccaa##",
"..aaaaaaaaaaaaaaaaaaaabbbcccaa##",
"..aaaaaaaaaaaaaaaaaaabbbbcccaa##",
"..bbbbccaaaaabbccaaaabbbbccaaa##",
"..bbbbccaaaabbbccaaabbbbccaaaa##",
"..bbbbccaaaabbbccaaabbbbccaaaa##",
"..bbbbccaaabbbbccaaabbbccaaaaa##",
"..bbbbccaaabbbbccaabbbbccaaaaa##",
"..bbbbccaabbbbbccaabbbccaaaaaa##",
"..bbbbccaabbbbbccabbbbccaaaaaa##",
"..bbbbccabbbbbbccabbbccaaaaaaa##",
"..bbbbccabbbbbbccbbbbccaaaaaaa##",
"..bbbbccbbbbbbbccbbbccaaaaaaaa##",
"..bbbbccbbbbbbbcbbbbccaaaaaaaa##",
"..bbbbccbbbbbbbcbbbccaaaaaaaaa##",
"..bbbbbbbbbbbbbbbbbccaaaaaaaaa##",
"..bbbbbbbbcbbbbbbbccaaaaaaaaaa##",
"..bbbbbbbcabbbbbbbccaaaaaaaaaa##",
"..bbbbbbbcabbbbbbccaaaaaaaaaaa##",
"..bbbbbbcaabbbbbbccaaaaaaaaaaa##",
"..bbbbbbaaabbbbbccaaaaaaaaaaaa##",
"..abbbbcaaaabbbbcaaaaaaaaaaaaa##",
"..##############################",
".###############################"};
