/* XPM */
static char *dummy[]={
"32 32 15 1",
"c c #008100",
"d c #00ba00",
"e c #00fa00",
"k c #292829",
"l c #9c1008",
"j c #ac205a",
"g c #cd3029",
"m c #d54883",
"f c #e6615a",
"h c #ff5941",
"i c #ff71ac",
"a c #ffaa73",
"b c #ffba83",
"# c #fffaff",
". c #ffffff",
"..######....##########..........",
"..######....##########..........",
"##aaaabb####ccccddeeee##........",
"##aaaabb####ccccddeeee##........",
"##bbbb##ddddddddddddeeee##......",
"##bbbb##ddddddddddddeeee##......",
"..##dd######bb##bbbb######......",
"..##dd######bb##bbbb######......",
"..##ddaaffaaaa##aa####aaaa##....",
"..##ddaaffaaaa##aa####aaaa##....",
"..##ddbbbbbb##aaaa####bbbb##....",
"..##ddbbbbbb##aaaa####bbbb##....",
"....############aabbbb####......",
"....############aabbbb####......",
"....##ddbbbbbbbbbbbb####........",
"....##ddbbbbbbbbbbbb####........",
"......##dd##ddeegghhddccdd##....",
"......##dd##ddeegghhddccdd##....",
"..########ddeegghhddccee######..",
"..########ddeegghhddccee######..",
"##iijj##kkllllkk##eeee##bbffff##",
"##iijj##kkllllkk##eeee##bbffff##",
"##iiiijj##gggggggg##ee##bbaaaa##",
"##iiiijj##gggggggg##ee##bbaaaa##",
"..##iimm##hhhhhhhhgg######ii##..",
"..##iimm##hhhhhhhhgg######ii##..",
"..##iimm######hhhhhhgg##mmiiii##",
"..##iimm######hhhhhhgg##mmiiii##",
"....####......####hhhhhh##mmii##",
"....####......####hhhhhh##mmii##",
"..................######..####..",
"..................######..####.."};
